<svg width="40" height="40" viewBox="0 0 40 40" fill="none" xmlns="http://www.w3.org/2000/svg">
<g id="Icon/Security">
<rect width="40" height="40" rx="4.66667" fill="#F5F4F3"/>
<g id="Vector">
<path d="M23.5669 17.3664C23.8661 17.6161 23.9132 18.0698 23.6721 18.3798L21.7667 20.8297C21.4213 21.2739 21.1165 21.6658 20.8333 21.9398C20.5291 22.2341 20.151 22.492 19.6522 22.492C19.1534 22.492 18.7753 22.2341 18.4711 21.9398C18.1878 21.6657 17.8829 21.2736 17.5374 20.8292L17.0236 20.1686C16.7825 19.8587 16.8296 19.405 17.1288 19.1553C17.4279 18.9055 17.8659 18.9543 18.1069 19.2642L18.5907 19.8862C18.9756 20.3812 19.2186 20.6908 19.4208 20.8864C19.5158 20.9783 19.5765 21.0192 19.6113 21.0373C19.6373 21.0507 19.6466 21.0507 19.6515 21.0506H19.6529C19.6579 21.0507 19.6671 21.0507 19.6931 21.0373C19.728 21.0192 19.7887 20.9783 19.8837 20.8864C20.0858 20.6908 20.3288 20.3812 20.7138 19.8862L22.5888 17.4754C22.8298 17.1655 23.2678 17.1167 23.5669 17.3664Z" fill="#E86439"/>
<path d="M20 30.6667C19.8892 30.6667 19.7805 30.6575 19.6738 30.639C19.5672 30.6206 19.4639 30.593 19.3639 30.5562C17.1145 29.7274 15.3248 28.2578 13.9949 26.1476C12.665 24.0374 12 21.7603 12 19.3165V14.3395C12 13.9197 12.1165 13.5419 12.3495 13.2061C12.5825 12.8703 12.8838 12.6268 13.2533 12.4757L19.3251 10.1275C19.5535 10.0425 19.7785 10 20 10C20.2215 10 20.4465 10.0425 20.6749 10.1275L26.7467 12.4757C27.1162 12.6268 27.4175 12.8703 27.6505 13.2061C27.8835 13.5419 28 13.9197 28 14.3395V19.3165C28 21.7603 27.335 24.0374 26.0051 26.1476C24.6752 28.2578 22.8855 29.7274 20.6361 30.5562C20.5361 30.593 20.4328 30.6206 20.3262 30.639C20.2195 30.6575 20.1108 30.6667 20 30.6667ZM20 29.041C21.8489 28.4332 23.3778 27.2176 24.5867 25.3943C25.7956 23.5709 26.4 21.545 26.4 19.3165V14.3288C26.4 14.258 26.3812 14.1942 26.3436 14.1376C26.306 14.0809 26.253 14.0384 26.1846 14.01L20.1128 11.6618C20.0786 11.6476 20.041 11.6405 20 11.6405C19.959 11.6405 19.9214 11.6476 19.8872 11.6618L13.8154 14.01C13.747 14.0384 13.694 14.0809 13.6564 14.1376C13.6188 14.1942 13.6 14.258 13.6 14.3288V19.3165C13.6 21.545 14.2044 23.5709 15.4133 25.3943C16.6222 27.2176 18.1511 28.4332 20 29.041Z" fill="#E86439"/>
</g>
</g>
</svg>
