<svg width="40" height="40" viewBox="0 0 40 40" fill="none" xmlns="http://www.w3.org/2000/svg">
<g id="Icon/Doc">
<rect width="40" height="40" rx="4.66667" fill="#F5F4F3"/>
<path id="Vector" d="M13.1056 28C12.6103 28 12.1912 27.8284 11.848 27.4853C11.5049 27.1421 11.3333 26.7229 11.3333 26.2277V13.1056C11.3333 12.6103 11.5049 12.1912 11.848 11.848C12.1912 11.5049 12.6103 11.3333 13.1056 11.3333H26.2277C26.7229 11.3333 27.1421 11.5049 27.4853 11.848C27.8284 12.1912 28 12.6103 28 13.1056V26.2277C28 26.7229 27.8284 27.1421 27.4853 27.4853C27.1421 27.8284 26.7229 28 26.2277 28H13.1056ZM13.1056 26.5294H26.2277C26.3031 26.5294 26.3723 26.498 26.4351 26.4351C26.498 26.3723 26.5294 26.3031 26.5294 26.2277V13.1056C26.5294 13.0301 26.498 12.961 26.4351 12.8981C26.3723 12.8353 26.3031 12.8039 26.2277 12.8039H13.1056C13.0301 12.8039 12.961 12.8353 12.8981 12.8981C12.8353 12.961 12.8039 13.0301 12.8039 13.1056V26.2277C12.8039 26.3031 12.8353 26.3723 12.8981 26.4351C12.961 26.498 13.0301 26.5294 13.1056 26.5294ZM15.7451 24.3235H20.647C20.8557 24.3235 21.0304 24.2531 21.1712 24.1123C21.3119 23.9716 21.3823 23.7969 21.3823 23.5882C21.3823 23.3796 21.3119 23.2049 21.1712 23.0641C21.0304 22.9233 20.8557 22.853 20.647 22.853H15.7451C15.5364 22.853 15.3617 22.9233 15.2209 23.0641C15.0802 23.2049 15.0098 23.3796 15.0098 23.5882C15.0098 23.7969 15.0802 23.9716 15.2209 24.1123C15.3617 24.2531 15.5364 24.3235 15.7451 24.3235ZM15.7451 20.4019H23.5882C23.7969 20.4019 23.9716 20.3315 24.1123 20.1908C24.2531 20.05 24.3235 19.8753 24.3235 19.6666C24.3235 19.458 24.2531 19.2833 24.1123 19.1425C23.9716 19.0018 23.7969 18.9314 23.5882 18.9314H15.7451C15.5364 18.9314 15.3617 19.0018 15.2209 19.1425C15.0802 19.2833 15.0098 19.458 15.0098 19.6666C15.0098 19.8753 15.0802 20.05 15.2209 20.1908C15.3617 20.3315 15.5364 20.4019 15.7451 20.4019ZM15.7451 16.4803H23.5882C23.7969 16.4803 23.9716 16.41 24.1123 16.2692C24.2531 16.1284 24.3235 15.9537 24.3235 15.7451C24.3235 15.5364 24.2531 15.3617 24.1123 15.2209C23.9716 15.0802 23.7969 15.0098 23.5882 15.0098H15.7451C15.5364 15.0098 15.3617 15.0802 15.2209 15.2209C15.0802 15.3617 15.0098 15.5364 15.0098 15.7451C15.0098 15.9537 15.0802 16.1284 15.2209 16.2692C15.3617 16.41 15.5364 16.4803 15.7451 16.4803Z" fill="#E86439"/>
</g>
</svg>
