<svg width="40" height="40" viewBox="0 0 40 40" fill="none" xmlns="http://www.w3.org/2000/svg">
<g id="Icon/Size">
<rect width="40" height="40" rx="7" fill="#F5F4F3"/>
<path id="Vector" d="M8.75913 28C7.98813 28 7.33553 27.7295 6.80132 27.1886C6.26711 26.6477 6 25.9853 6 25.2014V13.7986C6 13.0147 6.26711 12.3523 6.80132 11.8114C7.33553 11.2705 7.98813 11 8.75913 11H32.2409C33.0119 11 33.6645 11.2705 34.1987 11.8114C34.7329 12.3523 35 13.0147 35 13.7986V25.2014C35 25.9853 34.7329 26.6477 34.1987 27.1886C33.6645 27.7295 33.0119 28 32.2409 28H8.75913ZM8.75913 25.6818H32.2409C32.3583 25.6818 32.4659 25.6323 32.5638 25.5333C32.6616 25.4342 32.7106 25.3252 32.7106 25.2063V13.7937C32.7106 13.6748 32.6616 13.5658 32.5638 13.4668C32.4659 13.3677 32.3583 13.3182 32.2409 13.3182H27.75V17.7465C27.75 18.0749 27.6402 18.3502 27.4208 18.5723C27.2012 18.7945 26.9293 18.9055 26.6048 18.9055C26.2803 18.9055 26.0085 18.7945 25.7893 18.5723C25.5702 18.3502 25.4606 18.0749 25.4606 17.7465V13.3182H21.6447V17.7465C21.6447 18.0749 21.535 18.3502 21.3155 18.5723C21.096 18.7945 20.824 18.9055 20.4995 18.9055C20.175 18.9055 19.9032 18.7945 19.684 18.5723C19.4649 18.3502 19.3553 18.0749 19.3553 17.7465V13.3182H15.5394V17.7465C15.5394 18.0749 15.4297 18.3502 15.2102 18.5723C14.9907 18.7945 14.7187 18.9055 14.3942 18.9055C14.0697 18.9055 13.7979 18.7945 13.5787 18.5723C13.3596 18.3502 13.25 18.0749 13.25 17.7465V13.3182H8.75913C8.6417 13.3182 8.53406 13.3677 8.4362 13.4668C8.33836 13.5658 8.28944 13.6748 8.28944 13.7937V25.2063C8.28944 25.3252 8.33836 25.4342 8.4362 25.5333C8.53406 25.6323 8.6417 25.6818 8.75913 25.6818Z" fill="#E86439"/>
</g>
</svg>
